<svg width="13" height="11" viewBox="0 0 13 11" fill="none" xmlns="http://www.w3.org/2000/svg">
<path d="M11.5 0.9375H1.5C1.16848 0.9375 0.850537 1.0692 0.616116 1.30362C0.381696 1.53804 0.25 1.85598 0.25 2.1875V9.6875C0.25 10.019 0.381696 10.337 0.616116 10.5714C0.850537 10.8058 1.16848 10.9375 1.5 10.9375H11.5C11.8315 10.9375 12.1495 10.8058 12.3839 10.5714C12.6183 10.337 12.75 10.019 12.75 9.6875V2.1875C12.75 1.85598 12.6183 1.53804 12.3839 1.30362C12.1495 1.0692 11.8315 0.9375 11.5 0.9375ZM11.5 3.875L6.5 7.20875L1.5 3.875V2.37312L6.5 5.70625L11.5 2.37312V3.875Z" fill="#145CEF"/>
</svg>
