<svg width="176" height="45" viewBox="0 0 176 45" fill="none" xmlns="http://www.w3.org/2000/svg">
<path d="M20.6832 0.228516V18.857V22.8759L20.6327 43.5855C20.6244 43.7245 20.6643 43.8622 20.7456 43.9753C20.8268 44.0884 20.9446 44.1701 21.079 44.2067C21.2134 44.2433 21.3563 44.2325 21.4837 44.1761C21.6111 44.1197 21.7152 44.0213 21.7785 43.8972L41.3843 13.5659L20.6832 0.228516Z" fill="url(#paint0_linear_1431_1093)"/>
<path d="M20.683 0.228516L1.01821 30.5935C0.95686 30.7026 0.931269 30.8282 0.945039 30.9526C0.958809 31.077 1.01125 31.1939 1.09497 31.287C1.17869 31.38 1.28948 31.4444 1.41174 31.4711C1.534 31.4979 1.66157 31.4856 1.77649 31.4361L16.9422 24.5947L20.6325 22.9096L20.683 0.228516Z" fill="url(#paint1_linear_1431_1093)"/>
<path d="M0.968552 31.0146C0.941023 30.93 0.934309 30.84 0.948973 30.7522C0.963636 30.6645 0.999248 30.5816 1.0528 30.5104L20.683 0.261719V1.01794L1.07808 31.2666C1.0125 31.1984 0.973635 31.109 0.968552 31.0146Z" fill="url(#paint2_linear_1431_1093)"/>
<path d="M20.9573 44.1695C20.8521 44.1283 20.7609 44.053 20.696 43.9536C20.6311 43.8542 20.5957 43.7355 20.5944 43.6135L20.6392 0.228516L21.0114 0.515598L21.0807 44.0916C21.0808 44.1551 21.0146 44.1969 20.9573 44.1695Z" fill="url(#paint3_linear_1431_1093)"/>
<path d="M51.043 32.0424V12.0068H57.6569L62.3751 29.7001H62.8301V12.0068H66.2002V32.0424H59.6537L54.9271 14.3491H54.4468V32.0424H51.043Z" fill="#FCFCFC"/>
<path d="M76.9681 32.4392C75.6547 32.4698 74.3535 32.1807 73.1767 31.5967C72.0776 31.0217 71.1656 30.1448 70.548 29.0691C69.881 27.8887 69.5489 26.5487 69.5875 25.1934V24.7553C69.5501 23.3949 69.882 22.0497 70.548 20.8628C71.1607 19.7833 72.074 18.9051 73.1767 18.3352C74.3549 17.755 75.6551 17.4661 76.9681 17.4926C78.2786 17.4641 79.5766 17.7532 80.7511 18.3352C81.849 18.9058 82.7567 19.7842 83.363 20.8628C84.0289 22.0497 84.3608 23.3949 84.3234 24.7553V25.2103C84.362 26.5655 84.0299 27.9056 83.363 29.086C82.7517 30.1607 81.8453 31.0379 80.7511 31.6136C79.5763 32.1933 78.2776 32.4767 76.9681 32.4392ZM76.9681 29.5241C77.5133 29.5443 78.0567 29.4515 78.5642 29.2514C79.0718 29.0513 79.5323 28.7482 79.917 28.3614C80.3166 27.9257 80.624 27.4138 80.8209 26.8564C81.0178 26.299 81.1001 25.7076 81.0628 25.1176V24.8311C81.0993 24.2399 81.0167 23.6475 80.8198 23.0888C80.623 22.5301 80.316 22.0167 79.917 21.579C79.1157 20.834 78.0622 20.4198 76.9681 20.4198C75.874 20.4198 74.8205 20.834 74.0192 21.579C73.6202 22.0167 73.3132 22.5301 73.1164 23.0888C72.9195 23.6475 72.8369 24.2399 72.8734 24.8311V25.1176C72.8361 25.7076 72.9184 26.299 73.1153 26.8564C73.3122 27.4138 73.6196 27.9257 74.0192 28.3614C74.4036 28.7487 74.8641 29.052 75.3717 29.2521C75.8793 29.4522 76.4229 29.5448 76.9681 29.5241Z" fill="#FCFCFC"/>
<path d="M87.8195 32.0417V17.904H91.0464V19.5385H91.5351C91.7073 18.9868 92.0883 18.5242 92.5967 18.2494C93.1431 17.9681 93.7516 17.829 94.366 17.845H96.0511V20.7686H94.307C93.4682 20.7314 92.6446 21.0009 91.9901 21.5269C91.6792 21.8245 91.4386 22.1876 91.2855 22.5898C91.1325 22.9921 91.071 23.4233 91.1054 23.8523V32.0417H87.8195Z" fill="#FCFCFC"/>
<path d="M104.266 32.4384C103.143 32.445 102.039 32.1543 101.064 31.5958C100.053 31.0131 99.2286 30.1537 98.6885 29.1188C98.0842 27.9039 97.7945 26.5568 97.846 25.201V24.7544C97.7945 23.3958 98.0842 22.046 98.6885 20.8282C99.225 19.7983 100.043 18.9422 101.048 18.3596C102.027 17.7982 103.138 17.5074 104.266 17.517C105.023 17.5001 105.777 17.6083 106.499 17.8372C107.038 18.0041 107.539 18.2761 107.973 18.6376C108.315 18.9385 108.6 19.298 108.816 19.6992H109.296V12.0068H112.565V32.0424H109.389V30.1804H108.9C108.512 30.8082 107.988 31.3408 107.367 31.739C106.422 32.2666 105.345 32.5094 104.266 32.4384ZM105.243 29.5822C105.788 29.5979 106.33 29.503 106.837 29.3031C107.344 29.1033 107.805 28.8026 108.192 28.4194C108.6 27.9764 108.914 27.4553 109.115 26.8878C109.317 26.3202 109.401 25.7177 109.363 25.1167V24.8302C109.407 24.2275 109.327 23.6224 109.128 23.0516C108.93 22.4809 108.617 21.9566 108.209 21.5107C107.82 21.1286 107.357 20.83 106.849 20.633C106.34 20.436 105.797 20.3447 105.252 20.3648C104.71 20.3513 104.171 20.4457 103.667 20.6424C103.162 20.8391 102.701 21.1343 102.311 21.5107C101.895 21.9518 101.574 22.4746 101.37 23.0459C101.165 23.6173 101.081 24.2249 101.123 24.8302V25.1167C101.085 25.7192 101.17 26.3233 101.374 26.8915C101.579 27.4596 101.898 27.9797 102.311 28.4194C102.698 28.7986 103.157 29.0968 103.66 29.2964C104.164 29.4961 104.702 29.5932 105.243 29.5822Z" fill="#FCFCFC"/>
<path d="M123.375 32.4382C122.084 32.4619 120.806 32.1728 119.651 31.5957C118.56 31.0348 117.653 30.172 117.039 29.1102C116.371 27.9149 116.039 26.5611 116.078 25.1924V24.7543C116.039 23.3856 116.371 22.0317 117.039 20.8365C117.647 19.7596 118.554 18.8818 119.651 18.3089C120.806 17.7317 122.084 17.4426 123.375 17.4663C124.574 17.4364 125.764 17.6813 126.854 18.1825C127.782 18.6317 128.581 19.3068 129.18 20.1456C129.776 20.9721 130.168 21.9276 130.326 22.9344L127.149 23.5916C127.082 23.0212 126.898 22.4707 126.61 21.9739C126.316 21.4843 125.894 21.0849 125.388 20.8196C124.792 20.5156 124.128 20.3677 123.459 20.3899C122.729 20.3783 122.008 20.5492 121.361 20.887C120.73 21.2287 120.219 21.7549 119.895 22.3952C119.526 23.1404 119.347 23.9652 119.373 24.7964V25.0828C119.345 25.9087 119.525 26.7283 119.895 27.4672C120.226 28.1024 120.735 28.6267 121.361 28.9754C122.005 29.3225 122.727 29.4994 123.459 29.4893C123.938 29.5236 124.419 29.4615 124.873 29.3067C125.327 29.1518 125.746 28.9074 126.104 28.5878C126.725 27.9534 127.121 27.134 127.233 26.254L130.41 26.9954C130.191 27.9775 129.773 28.9039 129.18 29.7168C128.574 30.549 127.776 31.2225 126.854 31.6799C125.769 32.1996 124.578 32.4592 123.375 32.4382Z" fill="#FCFCFC"/>
<path d="M140.318 32.4392C139.005 32.4698 137.704 32.1807 136.527 31.5967C135.428 31.0217 134.516 30.1448 133.898 29.0691C133.231 27.8887 132.899 26.5487 132.938 25.1934V24.7553C132.9 23.3949 133.232 22.0497 133.898 20.8628C134.511 19.7833 135.424 18.9051 136.527 18.3352C137.705 17.755 139.005 17.4661 140.318 17.4926C141.629 17.4641 142.927 17.7532 144.101 18.3352C145.199 18.9058 146.107 19.7842 146.713 20.8628C147.379 22.0497 147.711 23.3949 147.674 24.7553V25.2103C147.712 26.5655 147.38 27.9056 146.713 29.086C146.102 30.1607 145.195 31.0379 144.101 31.6136C142.926 32.1933 141.628 32.4767 140.318 32.4392ZM140.318 29.5241C140.863 29.5443 141.407 29.4515 141.914 29.2514C142.422 29.0513 142.882 28.7482 143.267 28.3614C143.671 27.9278 143.983 27.4168 144.185 26.8593C144.386 26.3018 144.472 25.7093 144.438 25.1176V24.8311C144.475 24.2399 144.392 23.6475 144.195 23.0888C143.998 22.5301 143.691 22.0167 143.292 21.579C142.491 20.834 141.438 20.4198 140.343 20.4198C139.249 20.4198 138.196 20.834 137.395 21.579C136.996 22.0167 136.689 22.5301 136.492 23.0888C136.295 23.6475 136.212 24.2399 136.249 24.8311V25.1176C136.211 25.7076 136.294 26.299 136.491 26.8564C136.688 27.4138 136.995 27.9257 137.395 28.3614C137.776 28.7455 138.232 29.0469 138.735 29.247C139.238 29.447 139.777 29.5413 140.318 29.5241Z" fill="#FCFCFC"/>
<path d="M151.178 32.0417V17.904H154.405V19.5385H154.894C155.066 18.9868 155.447 18.5242 155.956 18.2494C156.502 17.9681 157.111 17.829 157.725 17.845H159.41V20.7686H157.641C156.799 20.7301 155.972 20.9997 155.315 21.5269C155.004 21.8245 154.764 22.1876 154.611 22.5898C154.458 22.9921 154.396 23.4233 154.431 23.8523V32.0417H151.178Z" fill="#FCFCFC"/>
<path d="M168.307 32.4384C167.006 32.4685 165.719 32.1577 164.575 31.5369C163.506 30.9556 162.629 30.0778 162.047 29.0093C161.422 27.8244 161.111 26.4984 161.146 25.1589V24.8134C161.099 23.4769 161.389 22.15 161.988 20.9546C162.571 19.8869 163.448 19.0095 164.516 18.427C165.647 17.81 166.919 17.4993 168.206 17.5255C169.467 17.4989 170.712 17.8102 171.812 18.427C172.835 19.0259 173.668 19.9022 174.214 20.9546C174.802 22.136 175.091 23.4436 175.056 24.7629V25.934H164.44C164.438 26.4351 164.541 26.9311 164.743 27.3898C164.944 27.8485 165.24 28.2596 165.611 28.5964C166.366 29.268 167.348 29.6266 168.358 29.599C169.211 29.6685 170.058 29.416 170.734 28.8913C171.244 28.4457 171.655 27.8973 171.939 27.2821L174.66 28.6807C174.339 29.2857 173.949 29.8512 173.497 30.3658C172.933 30.9911 172.248 31.4956 171.484 31.8486C170.483 32.2837 169.397 32.4854 168.307 32.4384ZM164.499 23.4233H171.737C171.718 22.9995 171.613 22.5839 171.429 22.2017C171.245 21.8194 170.986 21.4783 170.667 21.199C169.974 20.6208 169.091 20.3205 168.189 20.3564C167.298 20.2898 166.416 20.5712 165.728 21.1415C165.039 21.7118 164.599 22.5267 164.499 23.4148V23.4233Z" fill="#FCFCFC"/>
<defs>
<linearGradient id="paint0_linear_1431_1093" x1="34.4016" y1="35.9998" x2="19.5638" y2="3.6255" gradientUnits="userSpaceOnUse">
<stop stop-color="#6BFFFE"/>
<stop offset="0.29" stop-color="#64F5FE"/>
<stop offset="0.42" stop-color="#3EBAFB"/>
<stop offset="0.5" stop-color="#145CEF"/>
</linearGradient>
<linearGradient id="paint1_linear_1431_1093" x1="-3.43123" y1="22.3347" x2="20.3295" y2="21.7975" gradientUnits="userSpaceOnUse">
<stop stop-color="#5CE1A9"/>
<stop offset="0.06" stop-color="#50DFA5"/>
<stop offset="0.16" stop-color="#30D899"/>
<stop offset="0.28" stop-color="#00CE88"/>
<stop offset="0.43" stop-color="#00CB87"/>
<stop offset="0.53" stop-color="#00C284"/>
<stop offset="0.61" stop-color="#00B380"/>
<stop offset="0.69" stop-color="#009D79"/>
<stop offset="0.75" stop-color="#008973"/>
</linearGradient>
<linearGradient id="paint2_linear_1431_1093" x1="1.73437" y1="15.2634" x2="19.9086" y2="16.1897" gradientUnits="userSpaceOnUse">
<stop stop-color="#5CE1A9"/>
<stop offset="0.23" stop-color="#C8FFEB"/>
<stop offset="0.65" stop-color="#C8FFEB"/>
<stop offset="1" stop-color="#008973"/>
</linearGradient>
<linearGradient id="paint3_linear_1431_1093" x1="19.5933" y1="22.1395" x2="22.101" y2="22.2564" gradientUnits="userSpaceOnUse">
<stop stop-color="#1A5EF0"/>
<stop offset="0.23" stop-color="#125EF1"/>
<stop offset="0.99" stop-color="#69FCFE"/>
</linearGradient>
</defs>
</svg>
