<svg width="16" height="16" viewBox="0 0 16 16" fill="none" xmlns="http://www.w3.org/2000/svg">
<path d="M7.99995 0.405762C3.84016 0.405762 0.468079 3.77784 0.468079 7.93763C0.468079 12.0974 3.84016 15.4695 7.99995 15.4695C12.1597 15.4695 15.5318 12.0974 15.5318 7.93763C15.5318 3.77784 12.1597 0.405762 7.99995 0.405762ZM10.8966 8.90343C10.8966 8.90343 11.5627 9.5609 11.7267 9.8661C11.7314 9.87238 11.7337 9.87865 11.7353 9.88179C11.802 9.99399 11.8177 10.0811 11.7847 10.1462C11.7298 10.2545 11.5415 10.3078 11.4772 10.3125H10.3003C10.2187 10.3125 10.0477 10.2913 9.84055 10.1485C9.68128 10.0371 9.52437 9.85433 9.37137 9.67624C9.14306 9.41105 8.94535 9.18196 8.74607 9.18196C8.72076 9.18191 8.6956 9.18589 8.67154 9.19373C8.5209 9.24237 8.3279 9.45734 8.3279 10.0301C8.3279 10.209 8.18667 10.3117 8.08703 10.3117H7.54803C7.36445 10.3117 6.40805 10.2474 5.56072 9.35378C4.52352 8.2593 3.58988 6.06408 3.58204 6.04368C3.52319 5.90167 3.6448 5.82557 3.77739 5.82557H4.96602C5.1245 5.82557 5.17628 5.92207 5.21237 6.00759C5.25474 6.10723 5.41008 6.50344 5.66507 6.94907C6.07854 7.67558 6.33195 7.97058 6.53516 7.97058C6.57326 7.97013 6.61068 7.96044 6.64421 7.94234C6.90939 7.79484 6.85997 6.84943 6.8482 6.65329C6.8482 6.61641 6.84741 6.23041 6.71168 6.04525C6.6144 5.91109 6.44885 5.86009 6.34843 5.84126C6.38907 5.78517 6.44263 5.73969 6.50456 5.70867C6.68658 5.61766 7.01453 5.60432 7.34012 5.60432H7.52136C7.87442 5.60903 7.96543 5.63178 8.09331 5.66395C8.35222 5.72593 8.35771 5.89304 8.33496 6.46499C8.3279 6.6274 8.32084 6.81099 8.32084 7.02753C8.32084 7.0746 8.31848 7.12482 8.31848 7.17817C8.31064 7.46924 8.30122 7.79955 8.50678 7.93528C8.53359 7.95209 8.56457 7.96106 8.59622 7.96117C8.66762 7.96117 8.88259 7.96117 9.46474 6.96241C9.64428 6.64094 9.80029 6.30688 9.93156 5.96287C9.94333 5.94247 9.97785 5.8797 10.0186 5.85538C10.0488 5.84003 10.0821 5.83222 10.1159 5.83263H11.5132C11.6655 5.83263 11.7698 5.85538 11.7894 5.91422C11.8239 6.00759 11.7831 6.29239 11.1453 7.1562L10.8605 7.53201C10.2823 8.2899 10.2823 8.32835 10.8966 8.90343Z" fill="#4C75A3"/>
</svg>
